<svg xmlns="http://www.w3.org/2000/svg" width="64" height="64" enable-background="new 0 0 64 64" viewBox="0 0 64 64"><path d="M57.997,51.039h-2.843V29.606l-11.468-7.65l-5.585,2.862v-5.379L23.711,11l-13.695,8.454v31.585H6.003
		C5.449,51.039,5,51.478,5,52.02C5,52.561,5.449,53,6.003,53h4.013h18.892h1.003h25.244h2.843C58.551,53,59,52.561,59,52.02
		C59,51.478,58.551,51.039,57.997,51.039z M12.021,26.023l10.7-5.4v3.718l-10.7,5.434V26.023z M53.148,39.344l-8.526-2.514v-5.049
		l8.526,4.101V39.344z M28.908,29.531v2.787l-4.18-1.718v-4.22l5.188,2.634L28.908,29.531z M22.722,30.738l-10.7,4.396v-3.15
		l10.7-5.434V30.738z M22.722,32.865v4.389l-10.7,3.371v-3.363L22.722,32.865z M24.728,32.728l4.18,1.718v4.21l-4.18-1.39V32.728z
		 M30.914,36.535l11.702-4.826v5.141l-11.702,3.767V36.535z M42.616,29.581l-11.702,4.826v-3.689l11.702-5.998V29.581z
		 M32.08,27.905l-7.353-3.734v-3.474l10.278,5.708L32.08,27.905z M12.021,42.684l10.7-3.371v4.256l-10.7,2.545V42.684z
		 M24.728,39.336l4.18,1.39v4.338l-4.18-1.421V39.336z M30.914,42.68l11.702-3.766v5.104L30.914,46.18V42.68z M44.622,38.878
		l8.526,2.514v3.905l-8.526-1.306V38.878z M53.148,33.696l-8.526-4.1v-4.642l8.526,5.688V33.696z M36.096,24.755l-11.368-6.313
		v-4.561l11.368,6.667V24.755z M22.722,13.93v4.486l-10.7,5.399v-3.281L22.722,13.93z M12.021,48.133l10.7-2.545v5.452h-10.7V48.133
		z M24.728,51.039v-5.32l4.18,1.421v3.898H24.728z M30.914,48.175l11.702-2.162v5.026H30.914V48.175z M44.622,51.039v-5.063
		l8.526,1.306v3.757H44.622z"/></svg>